<svg width="18" height="18" viewBox="0 0 18 18" fill="none" xmlns="http://www.w3.org/2000/svg">
<g clip-path="url(#clip0_134_1894)">
<path d="M7.09658 16.3877C7.37118 16.6623 7.81637 16.6623 8.09094 16.3877L8.29688 16.1817V17.2968C8.29688 17.6851 8.61167 17.9999 9.00001 17.9999C9.38834 17.9999 9.70313 17.6851 9.70313 17.2968V16.1818L9.90904 16.3877C10.1836 16.6623 10.6288 16.6623 10.9034 16.3877C11.178 16.1131 11.178 15.6679 10.9034 15.3933L9.49726 13.9871C9.22086 13.7107 8.77455 13.7152 8.50272 13.9871L7.09658 15.3933C6.82197 15.6679 6.82197 16.1131 7.09658 16.3877Z" fill="#666666"/>
<path d="M9.70312 2.10938V0.703125C9.70312 0.314789 9.38834 0 9 0C8.61166 0 8.29688 0.314789 8.29688 0.703125V2.10938C8.29688 2.49771 8.61166 2.8125 9 2.8125C9.38834 2.8125 9.70312 2.49771 9.70312 2.10938Z" fill="#666666"/>
<path d="M4.52523 4.52524C4.79983 4.25063 4.79983 3.80545 4.52523 3.53088L3.53087 2.53652C3.25626 2.26192 2.81108 2.26192 2.53651 2.53652C2.26194 2.81113 2.2619 3.25631 2.53651 3.53088L3.53087 4.52524C3.80544 4.79981 4.25062 4.79981 4.52523 4.52524Z" fill="#666666"/>
<path d="M14.4689 4.52526L15.4632 3.5309C15.7378 3.2563 15.7379 2.81111 15.4633 2.53651C15.1887 2.2619 14.7435 2.26194 14.4689 2.53651L13.4745 3.53087C13.1999 3.80547 13.1999 4.25066 13.4745 4.52526C13.749 4.79976 14.1942 4.7999 14.4689 4.52526Z" fill="#666666"/>
<path d="M0.703125 8.29688C0.314789 8.29688 0 8.61166 0 9C0 9.38834 0.314789 9.70312 0.703125 9.70312H2.10938C2.49771 9.70312 2.8125 9.38834 2.8125 9C2.8125 8.61166 2.49771 8.29688 2.10938 8.29688H0.703125Z" fill="#666666"/>
<path d="M17.2969 8.29688H15.8906C15.5023 8.29688 15.1875 8.61166 15.1875 9C15.1875 9.38834 15.5023 9.70312 15.8906 9.70312H17.2969C17.6852 9.70312 18 9.38834 18 9C18 8.61166 17.6852 8.29688 17.2969 8.29688Z" fill="#666666"/>
<path d="M17.2969 11.1094H13.4482C13.7577 10.4548 13.9219 9.73561 13.9219 9C13.9219 6.27564 11.725 4.07812 9 4.07812C6.27564 4.07812 4.07812 6.275 4.07812 9C4.07812 9.73561 4.24234 10.4548 4.55175 11.1094H0.703125C0.314789 11.1094 0 11.4242 0 11.8125C0 12.2008 0.314789 12.5156 0.703125 12.5156H5.85H9C9.38834 12.5156 9.70312 12.2008 9.70312 11.8125C9.70312 11.4242 9.38834 11.1094 9 11.1094H6.1837C5.73082 10.5008 5.48438 9.76257 5.48438 9C5.48438 7.06148 7.06148 5.48438 9 5.48438C10.9386 5.48438 12.5156 7.06148 12.5156 9C12.5156 9.86439 12.1989 10.6976 11.6239 11.346C11.4274 11.5673 11.3901 11.8991 11.5397 12.1608C11.6666 12.3831 11.9029 12.5156 12.1497 12.5156H12.1499H12.15H17.2969C17.6852 12.5156 18 12.2008 18 11.8125C18 11.4241 17.6852 11.1094 17.2969 11.1094Z" fill="#666666"/>
</g>
<defs>
<clipPath id="clip0_134_1894">
<rect width="18" height="18" fill="white"/>
</clipPath>
</defs>
</svg>
