<svg width="18" height="18" viewBox="0 0 18 18" fill="none" xmlns="http://www.w3.org/2000/svg">
<g clip-path="url(#clip0_134_1863)">
<path d="M9 13.9219C6.28608 13.9219 4.07812 11.7139 4.07812 9C4.07812 6.28608 6.28608 4.07812 9 4.07812C11.7139 4.07812 13.9219 6.28608 13.9219 9C13.9219 11.7139 11.7139 13.9219 9 13.9219ZM9 5.48438C7.06148 5.48438 5.48438 7.06148 5.48438 9C5.48438 10.9385 7.06148 12.5156 9 12.5156C10.9385 12.5156 12.5156 10.9385 12.5156 9C12.5156 7.06148 10.9385 5.48438 9 5.48438Z" fill="#666666"/>
<path d="M9 2.67188C8.61166 2.67188 8.29688 2.35709 8.29688 1.96875V0.703125C8.29688 0.314789 8.61166 0 9 0C9.38834 0 9.70312 0.314789 9.70312 0.703125V1.96875C9.70312 2.35709 9.38834 2.67188 9 2.67188Z" fill="#666666"/>
<path d="M9 18C8.61166 18 8.29688 17.6852 8.29688 17.2969V16.0312C8.29688 15.6429 8.61166 15.3281 9 15.3281C9.38834 15.3281 9.70312 15.6429 9.70312 16.0312V17.2969C9.70312 17.6852 9.38834 18 9 18Z" fill="#666666"/>
<path d="M4.87558 3.26242L4.17245 2.04457C3.97828 1.70826 4.09349 1.27823 4.4298 1.08406C4.76606 0.889896 5.1961 1.00514 5.39026 1.34144L6.09339 2.55929C6.28756 2.89559 6.17235 3.32563 5.83605 3.51979C5.50118 3.71312 5.07059 3.6002 4.87558 3.26242Z" fill="#666666"/>
<path d="M12.61 16.6586L11.9068 15.4408C11.7127 15.1045 11.8279 14.6745 12.1642 14.4803C12.5004 14.2862 12.9305 14.4014 13.1246 14.7377L13.8278 15.9555C14.0219 16.2918 13.9067 16.7219 13.5704 16.916C13.2356 17.1093 12.805 16.9965 12.61 16.6586Z" fill="#666666"/>
<path d="M2.55926 6.09318L1.34142 5.39005C1.00511 5.19589 0.889904 4.76586 1.08407 4.42955C1.27824 4.09325 1.70827 3.97804 2.04454 4.17221L3.26239 4.87533C3.59869 5.0695 3.7139 5.49953 3.51973 5.83584C3.32497 6.1732 2.89455 6.28679 2.55926 6.09318Z" fill="#666666"/>
<path d="M15.9557 13.8276L14.7379 13.1244C14.4016 12.9303 14.2864 12.5002 14.4806 12.1639C14.6747 11.8276 15.1047 11.7124 15.441 11.9066L16.6589 12.6097C16.9952 12.8039 17.1104 13.2339 16.9162 13.5702C16.7215 13.9076 16.2911 14.0212 15.9557 13.8276Z" fill="#666666"/>
<path d="M1.96875 9.70312H0.703125C0.314789 9.70312 0 9.38834 0 9C0 8.61166 0.314789 8.29688 0.703125 8.29688H1.96875C2.35709 8.29688 2.67188 8.61166 2.67188 9C2.67188 9.38834 2.35709 9.70312 1.96875 9.70312Z" fill="#666666"/>
<path d="M17.2969 9.70312H16.0312C15.6429 9.70312 15.3281 9.38834 15.3281 9C15.3281 8.61166 15.6429 8.29688 16.0312 8.29688H17.2969C17.6852 8.29688 18 8.61166 18 9C18 9.38834 17.6852 9.70312 17.2969 9.70312Z" fill="#666666"/>
<path d="M1.08407 13.5702C0.889904 13.2339 1.00511 12.8039 1.34142 12.6097L2.55926 11.9066C2.8955 11.7124 3.32556 11.8276 3.51973 12.1639C3.7139 12.5002 3.59869 12.9303 3.26239 13.1244L2.04454 13.8276C1.70971 14.0209 1.27912 13.908 1.08407 13.5702Z" fill="#666666"/>
<path d="M14.4806 5.83583C14.2864 5.49952 14.4016 5.06949 14.7379 4.87532L15.9557 4.1722C16.2921 3.97803 16.722 4.09327 16.9162 4.42958C17.1104 4.76588 16.9952 5.19591 16.6589 5.39008L15.441 6.09321C15.1062 6.28653 14.6756 6.17361 14.4806 5.83583Z" fill="#666666"/>
<path d="M4.4298 16.916C4.09349 16.7219 3.97828 16.2918 4.17245 15.9555L4.87558 14.7377C5.06971 14.4014 5.49978 14.2862 5.83605 14.4803C6.17235 14.6745 6.28756 15.1045 6.09339 15.4408L5.39026 16.6586C5.1955 16.996 4.76512 17.1096 4.4298 16.916Z" fill="#666666"/>
<path d="M12.1642 3.51978C11.8279 3.32561 11.7127 2.89558 11.9068 2.55927L12.61 1.34143C12.8041 1.00512 13.2342 0.889915 13.5704 1.08405C13.9067 1.27822 14.0219 1.70825 13.8278 2.04455L13.1246 3.2624C12.9299 3.59976 12.4995 3.71335 12.1642 3.51978Z" fill="#666666"/>
</g>
<defs>
<clipPath id="clip0_134_1863">
<rect width="18" height="18" fill="white"/>
</clipPath>
</defs>
</svg>
