<svg width="18" height="18" viewBox="0 0 18 18" fill="none" xmlns="http://www.w3.org/2000/svg">
<g clip-path="url(#clip0_134_1854)">
<path d="M9 13.7817C8.61166 13.7817 8.29687 14.0965 8.29687 14.4849V15.5999L8.09093 15.3939C7.81632 15.1193 7.37114 15.1193 7.09657 15.3939C6.822 15.6685 6.82196 16.1137 7.09657 16.3883L8.50271 17.7945C8.77559 18.0674 9.22225 18.0695 9.49725 17.7945L10.9034 16.3883C11.178 16.1137 11.178 15.6685 10.9034 15.3939C10.6288 15.1194 10.1836 15.1193 9.90903 15.3939L9.70312 15.5998V14.4848C9.70312 14.0965 9.38833 13.7817 9 13.7817Z" fill="#666666"/>
<path d="M9 0.000488281C8.61166 0.000488281 8.29688 0.315277 8.29688 0.703613V2.10986C8.29688 2.4982 8.61166 2.81299 9 2.81299C9.38834 2.81299 9.70312 2.4982 9.70312 2.10986V0.703613C9.70312 0.315277 9.38834 0.000488281 9 0.000488281Z" fill="#666666"/>
<path d="M2.53652 2.53701C2.26192 2.81161 2.26192 3.2568 2.53652 3.53137L3.53088 4.52573C3.80545 4.8003 4.25063 4.80033 4.52524 4.52573C4.79984 4.25112 4.79984 3.80594 4.52524 3.53137L3.53091 2.53701C3.25631 2.2624 2.81113 2.2624 2.53652 2.53701Z" fill="#666666"/>
<path d="M14.4689 2.537L13.4745 3.53136C13.1999 3.80596 13.1999 4.25114 13.4745 4.52571C13.7491 4.80028 14.1943 4.80032 14.4689 4.52571L15.4632 3.53136C15.7378 3.25675 15.7378 2.81157 15.4632 2.537C15.1886 2.26243 14.7435 2.26239 14.4689 2.537Z" fill="#666666"/>
<path d="M0.703125 9.70361H2.10938C2.49771 9.70361 2.8125 9.38882 2.8125 9.00049C2.8125 8.61215 2.49771 8.29736 2.10938 8.29736H0.703125C0.314789 8.29736 0 8.61215 0 9.00049C0 9.38882 0.314789 9.70361 0.703125 9.70361Z" fill="#666666"/>
<path d="M17.2969 8.29736H15.8906C15.5023 8.29736 15.1875 8.61215 15.1875 9.00049C15.1875 9.38882 15.5023 9.70361 15.8906 9.70361H17.2969C17.6852 9.70361 18 9.38882 18 9.00049C18 8.61215 17.6852 8.29736 17.2969 8.29736Z" fill="#666666"/>
<path d="M17.2969 11.1099H13.4483C13.7577 10.4553 13.9219 9.7361 13.9219 9.00049C13.9219 6.27613 11.725 4.07861 9 4.07861C6.27564 4.07861 4.07812 6.27549 4.07812 9.00049C4.07812 9.7361 4.24234 10.4553 4.55175 11.1099H0.703125C0.314789 11.1099 0 11.4247 0 11.813C0 12.2013 0.314789 12.5161 0.703125 12.5161H5.85H9C9.38834 12.5161 9.70312 12.2013 9.70312 11.813C9.70312 11.4247 9.38834 11.1099 9 11.1099H6.1837C5.73082 10.5013 5.48438 9.76306 5.48438 9.00049C5.48438 7.06197 7.06148 5.48486 9 5.48486C10.9385 5.48486 12.5156 7.06197 12.5156 9.00049C12.5156 9.86487 12.1989 10.698 11.6239 11.3465C11.4333 11.5617 11.3921 11.874 11.5244 12.1329C11.6457 12.3698 11.8906 12.5161 12.1498 12.5161H12.1499H12.15H17.2969C17.6852 12.5161 18 12.2013 18 11.813C18 11.4247 17.6852 11.1099 17.2969 11.1099Z" fill="#666666"/>
</g>
<defs>
<clipPath id="clip0_134_1854">
<rect width="18" height="18" fill="white"/>
</clipPath>
</defs>
</svg>
