<svg width="18" height="18" viewBox="0 0 18 18" fill="none" xmlns="http://www.w3.org/2000/svg">
<g clip-path="url(#clip0_134_1891)">
<path d="M9.00858 18C6.60245 18 4.34028 17.0639 2.63879 15.3642C0.93716 13.6643 9.8713e-10 11.4042 9.8713e-10 9.00004C-3.51553e-05 6.59988 0.938988 4.3405 2.64407 2.63802C4.34788 0.936774 6.60807 0 9.00858 0H9.0129C9.56556 0.000246094 10.1193 0.0510469 10.6587 0.150961C11.3303 0.275379 11.8571 0.763524 12.0335 1.42495C12.2098 2.08638 11.9961 2.772 11.4757 3.21423C10.7419 3.83783 10.1404 4.58304 9.68804 5.42914C9.50498 5.77153 9.07907 5.90084 8.73647 5.71771C8.39401 5.53461 8.26481 5.10859 8.44791 4.76613C8.98383 3.76369 9.69616 2.88102 10.5651 2.14263C10.7154 2.01484 10.6918 1.85157 10.6747 1.78727C10.6576 1.72301 10.5967 1.56966 10.4026 1.53369C9.94725 1.44935 9.47946 1.40646 9.01227 1.40625C9.01114 1.40625 9.00974 1.40625 9.00861 1.40625C6.98319 1.40625 5.07607 2.19695 3.63772 3.63312C2.19871 5.06992 1.40625 6.97591 1.40625 9.00004C1.40629 13.1872 4.81669 16.5938 9.00858 16.5938C9.47282 16.5938 9.93769 16.5516 10.3903 16.4686C10.5938 16.4312 10.6568 16.2736 10.6745 16.2076C10.6954 16.1293 10.7091 15.9797 10.5652 15.8574C8.97652 14.5074 7.89957 12.6406 7.53272 10.601C7.46399 10.2188 7.7181 9.85328 8.10032 9.78455C8.4825 9.71575 8.84805 9.96989 8.91682 10.3521C9.22609 12.0717 10.1349 13.6464 11.4758 14.7858C11.9958 15.2277 12.2093 15.9118 12.033 16.571C11.855 17.2364 11.3228 17.7272 10.6442 17.8517C10.108 17.9501 9.55772 18 9.00858 18ZM17.1211 6.67969C17.6065 6.67969 18 7.07319 18 7.55859C18 8.044 17.6065 8.4375 17.1211 8.4375C16.6357 8.4375 16.2422 8.044 16.2422 7.55859C16.2422 7.07319 16.6357 6.67969 17.1211 6.67969ZM14.6602 16.2422C15.1456 16.2422 15.5391 16.6357 15.5391 17.1211C15.5391 17.6065 15.1456 18 14.6602 18C14.1748 18 13.7812 17.6065 13.7812 17.1211C13.7812 16.6357 14.1748 16.2422 14.6602 16.2422ZM15.082 1.93359C15.5674 1.93359 15.9609 2.3271 15.9609 2.8125C15.9609 3.2979 15.5674 3.69141 15.082 3.69141C14.5966 3.69141 14.2031 3.2979 14.2031 2.8125C14.2031 2.3271 14.5966 1.93359 15.082 1.93359ZM15.4688 11.2852C15.4688 11.6735 15.154 11.9883 14.7656 11.9883C14.7189 11.9883 14.628 11.9803 14.628 11.9803C14.628 11.9803 13.8319 11.8462 13.4549 12.2544C13.3216 12.3987 13.1343 12.4805 12.9384 12.4805C12.933 12.4805 12.9276 12.4804 12.9222 12.4803C12.7205 12.4757 12.5305 12.3846 12.4005 12.2302C11.9781 11.7286 11.1073 11.7785 11.0987 11.7792C10.7113 11.8121 10.3714 11.5251 10.3385 11.1382C10.3056 10.7513 10.5926 10.411 10.9795 10.378C11.0332 10.3735 12.0954 10.2922 12.97 10.8739C13.6866 10.4821 14.498 10.5436 14.7915 10.5833C15.1677 10.5971 15.4688 10.9056 15.4688 11.2852ZM7.3227 8.79434C7.33535 8.78671 8.62334 8.0453 9.70172 8.51882C9.88615 8.59978 10.0965 8.59778 10.2793 8.5133C10.4621 8.42882 10.6 8.26998 10.6579 8.07704C10.9582 7.07593 12.2904 6.69656 12.312 6.69059C12.6857 6.58986 12.9079 6.20582 12.8085 5.8314C12.709 5.45607 12.3242 5.23248 11.9486 5.33211C11.8744 5.3518 10.3521 5.7697 9.59945 7.02162C8.07557 6.71864 6.66675 7.54798 6.59921 7.58848C6.26621 7.78827 6.15825 8.22016 6.35808 8.55316C6.48991 8.77289 6.72279 8.89464 6.96164 8.89464C7.08472 8.89464 7.20942 8.86229 7.3227 8.79434Z" fill="#666666"/>
</g>
<defs>
<clipPath id="clip0_134_1891">
<rect width="18" height="18" fill="white"/>
</clipPath>
</defs>
</svg>
