<svg width="20" height="20" viewBox="0 0 20 20" fill="none" xmlns="http://www.w3.org/2000/svg">
<g clip-path="url(#clip0_16_35)">
<path d="M3.47245 6.38889L6.6669 7.31111L10.178 4.76111L5.13912 4.90555C5.08979 4.90825 5.04197 4.92355 5.00023 4.95L3.40579 5.86666C3.35619 5.89414 3.31598 5.93587 3.29035 5.98645C3.26473 6.03703 3.25487 6.09414 3.26205 6.15038C3.26923 6.20662 3.29312 6.25942 3.33063 6.30194C3.36814 6.34446 3.41754 6.37475 3.47245 6.38889Z" fill="white"/>
<path d="M19.1778 3.53334L15.6778 2.77778C15.3834 2.71388 15.0788 2.71405 14.7845 2.77827C14.4902 2.8425 14.2132 2.96928 13.9722 3.15001L3.4 10.8333L0.861107 10.7222C0.715682 10.7173 0.572378 10.7581 0.451429 10.839C0.330481 10.9199 0.237999 11.0368 0.187042 11.1731C0.136085 11.3094 0.129228 11.4582 0.167438 11.5986C0.205649 11.739 0.286997 11.8639 0.399996 11.9556L2.87222 13.9167C2.91292 13.9495 2.96136 13.9713 3.01292 13.9801C3.06447 13.9889 3.11741 13.9842 3.16666 13.9667C3.87222 13.6944 6.5 12.3 9.60555 10.5944L10.2278 16.9889C10.2331 17.0443 10.2534 17.0972 10.2865 17.1419C10.3196 17.1865 10.3643 17.2213 10.4158 17.2425C10.4672 17.2636 10.5235 17.2704 10.5785 17.2619C10.6334 17.2534 10.6851 17.2301 10.7278 17.1945L12.1167 16.0389C12.1927 15.9751 12.2438 15.8866 12.2611 15.7889L13.5778 8.40556C15.8 7.17223 17.9222 5.97778 19.4167 5.13334C19.5718 5.04895 19.6972 4.91893 19.7759 4.76088C19.8546 4.60284 19.8828 4.42442 19.8568 4.2498C19.8307 4.07517 19.7516 3.91278 19.6301 3.78463C19.5087 3.65647 19.3507 3.56875 19.1778 3.53334Z" fill="white"/>
</g>
<defs>
<clipPath id="clip0_16_35">
<rect width="20" height="20" fill="white"/>
</clipPath>
</defs>
</svg>
