<svg width="24" height="20" viewBox="0 0 24 20" fill="none" xmlns="http://www.w3.org/2000/svg">
<path d="M0 5.8749V5.1249C0 4.50357 0.503672 3.9999 1.125 3.9999H18V1.7499C18 0.748323 19.214 0.247932 19.9205 0.954386L23.6705 4.70439C24.1098 5.14375 24.1098 5.85606 23.6705 6.29537L19.9205 10.0454C19.2167 10.7491 18 10.2557 18 9.2499V6.9999H1.125C0.503672 6.9999 0 6.49623 0 5.8749ZM22.875 12.9999H6V10.7499C6 9.75081 4.78772 9.24615 4.07948 9.95439L0.329484 13.7044C-0.109828 14.1437 -0.109828 14.8561 0.329484 15.2954L4.07948 19.0454C4.78392 19.7498 6 19.2548 6 18.2499V15.9999H22.875C23.4963 15.9999 24 15.4962 24 14.8749V14.1249C24 13.5036 23.4963 12.9999 22.875 12.9999Z" fill="#B7B8BA"/>
</svg>
