<svg width="9" height="7" viewBox="0 0 9 7" fill="none" xmlns="http://www.w3.org/2000/svg">
<path d="M4.40726 6.65367C4.44549 6.70919 4.49663 6.75458 4.5563 6.78594C4.61596 6.8173 4.68236 6.83368 4.74976 6.83368C4.81716 6.83368 4.88356 6.8173 4.94322 6.78594C5.00289 6.75458 5.05404 6.70919 5.09226 6.65367L8.84226 1.237C8.88567 1.17453 8.91112 1.10135 8.91586 1.02542C8.9206 0.949494 8.90443 0.87372 8.86913 0.806333C8.83383 0.738946 8.78073 0.682522 8.71561 0.643193C8.65049 0.603864 8.57584 0.583133 8.49976 0.583252H0.99976C0.923862 0.583566 0.849484 0.604564 0.784627 0.643987C0.71977 0.68341 0.666886 0.739768 0.631664 0.807C0.596441 0.874231 0.580212 0.949792 0.584722 1.02556C0.589232 1.10132 0.61431 1.17442 0.65726 1.237L4.40726 6.65367Z" fill="#05AC66"/>
</svg>
