<svg width="24" height="24" viewBox="0 0 24 24" fill="none" xmlns="http://www.w3.org/2000/svg">
<g clip-path="url(#clip0_354_1200)">
<path d="M4.16685 7.66671L8.00018 8.77338L12.2135 5.71338L6.16685 5.88671C6.10765 5.88995 6.05026 5.90831 6.00018 5.94005L4.08685 7.04005C4.02733 7.07302 3.97908 7.12309 3.94833 7.18379C3.91757 7.24449 3.90574 7.31301 3.91436 7.38051C3.92297 7.448 3.95164 7.51135 3.99666 7.56238C4.04167 7.6134 4.10096 7.64975 4.16685 7.66671Z" fill="#171819"/>
<path d="M23.0135 4.23991L18.8135 3.33324C18.4603 3.25656 18.0947 3.25676 17.7416 3.33383C17.3884 3.4109 17.056 3.56303 16.7669 3.77991L4.08019 12.9999L1.03352 12.8666C0.859014 12.8606 0.687049 12.9097 0.541911 13.0068C0.396772 13.1038 0.285794 13.244 0.224646 13.4076C0.163497 13.5712 0.155268 13.7498 0.201121 13.9183C0.246974 14.0867 0.344592 14.2366 0.48019 14.3466L3.44686 16.6999C3.4957 16.7393 3.55383 16.7655 3.61569 16.776C3.67756 16.7865 3.74108 16.781 3.80019 16.7599C4.64686 16.4332 7.80019 14.7599 11.5269 12.7132L12.2735 20.3866C12.2799 20.453 12.3042 20.5165 12.344 20.5701C12.3837 20.6238 12.4374 20.6655 12.4991 20.6909C12.5609 20.7163 12.6284 20.7243 12.6943 20.7142C12.7603 20.704 12.8223 20.676 12.8735 20.6332L14.5402 19.2466C14.6314 19.1701 14.6928 19.0638 14.7135 18.9466L16.2935 10.0866C18.9602 8.60658 21.5069 7.17324 23.3002 6.15991C23.4863 6.05864 23.6368 5.90261 23.7312 5.71296C23.8257 5.52331 23.8596 5.30921 23.8283 5.09966C23.797 4.89011 23.7021 4.69524 23.5563 4.54145C23.4106 4.38767 23.2211 4.2824 23.0135 4.23991Z" fill="#171819"/>
</g>
<defs>
<clipPath id="clip0_354_1200">
<rect width="24" height="24" fill="white"/>
</clipPath>
</defs>
</svg>
