<svg width="12" height="10" viewBox="0 0 12 10" fill="none" xmlns="http://www.w3.org/2000/svg">
<path d="M5.52056 8.91533C5.57407 8.99306 5.64568 9.05661 5.72921 9.10051C5.81274 9.14441 5.90569 9.16735 6.00006 9.16735C6.09442 9.16735 6.18737 9.14441 6.2709 9.10051C6.35443 9.05661 6.42604 8.99306 6.47956 8.91533L11.7296 1.332C11.7903 1.24453 11.826 1.14208 11.8326 1.03579C11.8392 0.929487 11.8166 0.823403 11.7672 0.729061C11.7177 0.634719 11.6434 0.555726 11.5522 0.500665C11.4611 0.445604 11.3566 0.416581 11.2501 0.416749H0.750055C0.643797 0.417188 0.539669 0.446584 0.448868 0.501777C0.358068 0.55697 0.284031 0.635871 0.23472 0.729995C0.185408 0.824119 0.162688 0.929904 0.169002 1.03598C0.175316 1.14205 0.210425 1.24439 0.270555 1.332L5.52056 8.91533Z" fill="#171819"/>
</svg>
