<svg width="16" height="16" viewBox="0 0 16 16" fill="none" xmlns="http://www.w3.org/2000/svg">
<path d="M8 1C9.85652 1 11.637 1.7375 12.9497 3.05025C14.2625 4.36301 15 6.14348 15 8C15 9.85652 14.2625 11.637 12.9497 12.9497C11.637 14.2625 9.85652 15 8 15C6.14348 15 4.36301 14.2625 3.05025 12.9497C1.7375 11.637 1 9.85652 1 8C1 6.14348 1.7375 4.36301 3.05025 3.05025C4.36301 1.7375 6.14348 1 8 1ZM8 7.151L6.374 5.525C6.26142 5.41242 6.10872 5.34917 5.9495 5.34917C5.79028 5.34917 5.63758 5.41242 5.525 5.525C5.41242 5.63758 5.34917 5.79028 5.34917 5.9495C5.34917 6.10872 5.41242 6.26142 5.525 6.374L7.151 8L5.525 9.626C5.46925 9.68175 5.42503 9.74793 5.39486 9.82076C5.36469 9.8936 5.34917 9.97166 5.34917 10.0505C5.34917 10.1293 5.36469 10.2074 5.39486 10.2802C5.42503 10.3531 5.46925 10.4193 5.525 10.475C5.58075 10.5307 5.64693 10.575 5.71976 10.6051C5.7926 10.6353 5.87066 10.6508 5.9495 10.6508C6.02834 10.6508 6.1064 10.6353 6.17924 10.6051C6.25207 10.575 6.31825 10.5307 6.374 10.475L8 8.849L9.626 10.475C9.68175 10.5307 9.74793 10.575 9.82076 10.6051C9.8936 10.6353 9.97166 10.6508 10.0505 10.6508C10.1293 10.6508 10.2074 10.6353 10.2802 10.6051C10.3531 10.575 10.4193 10.5307 10.475 10.475C10.5307 10.4193 10.575 10.3531 10.6051 10.2802C10.6353 10.2074 10.6508 10.1293 10.6508 10.0505C10.6508 9.97166 10.6353 9.8936 10.6051 9.82076C10.575 9.74793 10.5307 9.68175 10.475 9.626L8.849 8L10.475 6.374C10.5307 6.31825 10.575 6.25207 10.6051 6.17924C10.6353 6.1064 10.6508 6.02834 10.6508 5.9495C10.6508 5.87066 10.6353 5.7926 10.6051 5.71976C10.575 5.64693 10.5307 5.58075 10.475 5.525C10.4193 5.46925 10.3531 5.42503 10.2802 5.39486C10.2074 5.36469 10.1293 5.34917 10.0505 5.34917C9.97166 5.34917 9.8936 5.36469 9.82076 5.39486C9.74793 5.42503 9.68175 5.46925 9.626 5.525L8 7.151Z" fill="#B3B3B3"/>
</svg>
