<svg width="43" height="42" viewBox="0 0 43 42" fill="none" xmlns="http://www.w3.org/2000/svg">
<path d="M23.25 36.75H7.5C6.57174 36.75 5.6815 36.3813 5.02513 35.7249C4.36875 35.0685 4 34.1783 4 33.25V8.75C4 7.82174 4.36875 6.9315 5.02513 6.27513C5.6815 5.61875 6.57174 5.25 7.5 5.25H35.5C36.4283 5.25 37.3185 5.61875 37.9749 6.27513C38.6313 6.9315 39 7.82174 39 8.75V21" stroke="white" stroke-width="2.625" stroke-linecap="round"/>
<path d="M4 12.25H39M9.25 8.76754L9.2675 8.74829M14.5 8.76754L14.5175 8.74829M19.75 8.76754L19.7675 8.74829M33.736 24.7188L38.209 25.8545C38.6745 25.9735 39.0018 26.397 38.9878 26.8765C38.6868 36.953 32.875 38.5 32.875 38.5C32.875 38.5 27.0632 36.953 26.7622 26.8765C26.7568 26.6431 26.831 26.4148 26.9725 26.2291C27.114 26.0433 27.3145 25.9113 27.541 25.8545L32.014 24.7188C32.5792 24.5753 33.1708 24.5753 33.736 24.7188V24.7188Z" stroke="white" stroke-width="2.625" stroke-linecap="round" stroke-linejoin="round"/>
</svg>
