<svg width="43" height="42" viewBox="0 0 43 42" fill="none" xmlns="http://www.w3.org/2000/svg">
<path d="M22.7285 3.84134L34.9785 8.43509C35.6458 8.68522 36.2208 9.13308 36.6267 9.71881C37.0326 10.3045 37.2501 11.0002 37.25 11.7128V21.0981C37.2501 24.0231 36.4356 26.8903 34.8979 29.3785C33.3602 31.8667 31.1599 33.8775 28.5437 35.1856L22.6742 38.1203C22.3097 38.3027 21.9076 38.3976 21.5 38.3976C21.0924 38.3976 20.6903 38.3027 20.3258 38.1203L14.4563 35.1856C11.8401 33.8775 9.63984 31.8667 8.10212 29.3785C6.5644 26.8903 5.74994 24.0231 5.75 21.0981V11.7128C5.74991 11.0002 5.96736 10.3045 6.37327 9.71881C6.77918 9.13308 7.35421 8.68522 8.0215 8.43509L20.2715 3.84134C21.0636 3.54442 21.9364 3.54442 22.7285 3.84134ZM21.5 7.11909L9.25 11.7128V21.0981C9.2504 23.3729 9.88419 25.6026 11.0804 27.5375C12.2765 29.4723 13.9878 31.0359 16.0225 32.0531L21.5 34.7953L26.9775 32.0566C29.0127 31.0392 30.7244 29.475 31.9206 27.5395C33.1168 25.6039 33.7502 23.3734 33.75 21.0981V11.7128L21.5 7.11909ZM21.5 24.5001C21.9641 24.5001 22.4092 24.6845 22.7374 25.0126C23.0656 25.3408 23.25 25.786 23.25 26.2501C23.25 26.7142 23.0656 27.1593 22.7374 27.4875C22.4092 27.8157 21.9641 28.0001 21.5 28.0001C21.0359 28.0001 20.5908 27.8157 20.2626 27.4875C19.9344 27.1593 19.75 26.7142 19.75 26.2501C19.75 25.786 19.9344 25.3408 20.2626 25.0126C20.5908 24.6845 21.0359 24.5001 21.5 24.5001ZM21.5 12.2501C21.9641 12.2501 22.4092 12.4345 22.7374 12.7627C23.0656 13.0908 23.25 13.536 23.25 14.0001V21.0001C23.25 21.4642 23.0656 21.9093 22.7374 22.2375C22.4092 22.5657 21.9641 22.7501 21.5 22.7501C21.0359 22.7501 20.5908 22.5657 20.2626 22.2375C19.9344 21.9093 19.75 21.4642 19.75 21.0001V14.0001C19.75 13.536 19.9344 13.0908 20.2626 12.7627C20.5908 12.4345 21.0359 12.2501 21.5 12.2501Z" fill="white"/>
</svg>
