<svg width="43" height="42" viewBox="0 0 43 42" fill="none" xmlns="http://www.w3.org/2000/svg">
<path d="M39.2597 16.8984H28.7597C28.5792 16.8984 28.4315 17.0461 28.4315 17.2266V19.1953C28.4315 19.3758 28.5792 19.5234 28.7597 19.5234H39.2597C39.4401 19.5234 39.5878 19.3758 39.5878 19.1953V17.2266C39.5878 17.0461 39.4401 16.8984 39.2597 16.8984ZM33.7636 22.4766H28.7597C28.5792 22.4766 28.4315 22.6242 28.4315 22.8047V24.7734C28.4315 24.9539 28.5792 25.1016 28.7597 25.1016H33.7636C33.944 25.1016 34.0917 24.9539 34.0917 24.7734V22.8047C34.0917 22.6242 33.944 22.4766 33.7636 22.4766ZM20.0767 13.2275H18.3007C18.0464 13.2275 17.8413 13.4326 17.8413 13.6869V23.8588C17.8413 24.0064 17.911 24.1418 18.03 24.2279L24.1372 28.6822C24.3423 28.8299 24.6294 28.7889 24.7771 28.5838L25.8312 27.1441V27.14C25.9788 26.935 25.9337 26.6479 25.7286 26.5002L20.5319 22.7432V13.6869C20.536 13.4326 20.3269 13.2275 20.0767 13.2275Z" fill="white"/>
<path d="M33.5094 27.6405H31.1387C30.909 27.6405 30.6916 27.7595 30.5686 27.9563C30.0477 28.7807 29.4407 29.5436 28.7434 30.2409C27.5416 31.4427 26.143 32.386 24.5885 33.0423C22.9766 33.7231 21.2662 34.0677 19.5026 34.0677C17.7348 34.0677 16.0244 33.7231 14.4166 33.0423C12.8621 32.386 11.4635 31.4427 10.2617 30.2409C9.05999 29.0391 8.11663 27.6405 7.46038 26.086C6.77952 24.4782 6.43499 22.7679 6.43499 21.0001C6.43499 19.2323 6.77952 17.5261 7.46038 15.9141C8.11663 14.3597 9.05999 12.961 10.2617 11.7593C11.4635 10.5575 12.8621 9.61414 14.4166 8.95789C16.0244 8.27703 17.7389 7.9325 19.5026 7.9325C21.2703 7.9325 22.9807 8.27703 24.5885 8.95789C26.143 9.61414 27.5416 10.5575 28.7434 11.7593C29.4407 12.4565 30.0477 13.2194 30.5686 14.0438C30.6916 14.2407 30.909 14.3597 31.1387 14.3597H33.5094C33.7924 14.3597 33.9729 14.0643 33.8457 13.8141C31.1715 8.49442 25.7492 5.0368 19.6953 4.96707C10.8319 4.85633 3.46956 12.112 3.45315 20.9673C3.43675 29.8389 10.6268 37.0372 19.4985 37.0372C25.6303 37.0372 31.1428 33.5673 33.8457 28.186C33.9729 27.9358 33.7883 27.6405 33.5094 27.6405Z" fill="white"/>
</svg>
