<svg width="112" height="32" viewBox="0 0 112 32" fill="none" xmlns="http://www.w3.org/2000/svg">
<path fill-rule="evenodd" clip-rule="evenodd" d="M18.5078 2.59081C17.4686 1.55211 15.7842 1.55245 14.7455 2.59158L6.07679 11.2639L6.0694 11.2617L6.042 11.2647C6.05329 11.2701 6.06436 11.2754 6.07521 11.2809C4.55453 11.4402 3.90933 11.8971 3.90203 12.484C3.9046 12.7023 3.99416 12.9381 4.15868 13.1828L4.15077 13.1907C5.53323 15.2758 12.3819 18.0263 17.2271 16.1628C13.5958 17.9784 5.04388 18.3383 2.53206 14.813C1.98657 15.4031 1.75834 16.1786 1.84429 16.9239C2.50784 20.5812 9.92642 21.579 17.3451 16.28L18.9504 17.8853C16.9528 19.9376 14.002 31.8587 18.3865 30.0386C18.4905 29.968 18.5788 29.9048 18.6989 29.8139L18.8943 29.6295C18.883 29.6322 18.8718 29.6349 18.8607 29.6375L30.6033 18.5518C31.6936 17.5225 31.7183 15.7959 30.6578 14.7358L18.5078 2.59081ZM17.229 6.20354L17.6303 4.59819L18.0317 6.20354L19.2357 6.60488L18.0317 7.00623L17.6303 8.61158L17.229 7.00623L16.025 6.60488L17.229 6.20354ZM12.2614 11.4441L12.529 10.3739L12.7965 11.4441L13.5992 11.7117L12.7965 11.9792L12.529 13.0495L12.2614 11.9792L11.4588 11.7117L12.2614 11.4441ZM21.5801 20.4715L21.3126 21.5417L20.5099 21.8094L21.3126 22.0769L21.5801 23.1471L21.8477 22.0769L22.6504 21.8094L21.8477 21.5417L21.5801 20.4715Z" fill="#3C4E5D"/>
<path d="M38.1901 8.53955H35.6982V19.7835H42.5966V17.5803H38.1901V8.53955Z" fill="#3C4E5D"/>
<path d="M42.8345 15.9696C42.8345 18.3704 44.4451 19.9658 46.8762 19.9658C49.2922 19.9658 50.9028 18.3704 50.9028 15.9696C50.9028 13.5688 49.2922 11.9583 46.8762 11.9583C44.4451 11.9583 42.8345 13.5688 42.8345 15.9696ZM45.1897 15.9544C45.1897 14.8148 45.8582 14.0551 46.8762 14.0551C47.8791 14.0551 48.5477 14.8148 48.5477 15.9544C48.5477 17.1092 47.8791 17.8689 46.8762 17.8689C45.8582 17.8689 45.1897 17.1092 45.1897 15.9544Z" fill="#3C4E5D"/>
<path d="M51.2789 15.8482C51.2789 18.1425 52.768 19.6924 54.88 19.6924C55.8981 19.6924 56.7793 19.3277 57.2199 18.7351V19.7836C57.2199 20.832 56.5666 21.531 55.4118 21.531C54.3786 21.531 53.6645 21.0447 53.6188 20.1786H51.2485C51.4612 22.2603 53.0718 23.6582 55.275 23.6582C57.8734 23.6582 59.5143 21.9716 59.5143 19.2973V12.1863H57.4023L57.2807 12.9612C56.8553 12.3382 55.9588 11.928 54.9256 11.928C52.7984 11.928 51.2789 13.5234 51.2789 15.8482ZM53.6492 15.7874C53.6492 14.6934 54.3786 13.964 55.3054 13.964C56.3843 13.964 57.1744 14.6782 57.1744 15.7874C57.1744 16.8966 56.3995 17.6563 55.3207 17.6563C54.3938 17.6563 53.6492 16.8966 53.6492 15.7874Z" fill="#3C4E5D"/>
<path d="M60.1968 15.9696C60.1968 18.3704 61.8073 19.9658 64.2385 19.9658C66.6544 19.9658 68.2651 18.3704 68.2651 15.9696C68.2651 13.5688 66.6544 11.9583 64.2385 11.9583C61.8073 11.9583 60.1968 13.5688 60.1968 15.9696ZM62.5519 15.9544C62.5519 14.8148 63.2205 14.0551 64.2385 14.0551C65.2414 14.0551 65.9099 14.8148 65.9099 15.9544C65.9099 17.1092 65.2414 17.8689 64.2385 17.8689C63.2205 17.8689 62.5519 17.1092 62.5519 15.9544Z" fill="#3C4E5D"/>
<path d="M70.2826 11.0009C71.0116 11.0009 71.6043 10.4083 71.6043 9.66374C71.6043 8.91919 71.0116 8.3418 70.2826 8.3418C69.5379 8.3418 68.9453 8.91919 68.9453 9.66374C68.9453 10.4083 69.5379 11.0009 70.2826 11.0009ZM69.0972 19.7833H71.4526V12.186H69.0972V19.7833Z" fill="#3C4E5D"/>
<path d="M72.8228 23.4302H75.1323V19.0238C75.5734 19.6012 76.5758 19.9963 77.6248 19.9963C79.8885 19.9963 81.2561 18.2641 81.1949 15.8633C81.1344 13.417 79.7215 11.9431 77.6095 11.9431C76.5306 11.9431 75.5128 12.4141 75.0871 13.1131L74.9654 12.1862H72.8228V23.4302ZM75.1782 15.9849C75.1782 14.8453 75.9379 14.0856 77.0321 14.0856C78.141 14.0856 78.8401 14.8605 78.8401 15.9849C78.8401 17.1093 78.141 17.8842 77.0321 17.8842C75.9379 17.8842 75.1782 17.1245 75.1782 15.9849Z" fill="#3C4E5D"/>
<path d="M81.4448 17.3828C81.5053 18.9174 82.7213 19.981 84.6358 19.981C86.4744 19.981 87.7509 19.0086 87.7509 17.4436C87.7509 16.3192 87.0817 15.5746 85.8358 15.2708L84.4834 14.9364C83.9972 14.8149 83.6939 14.6934 83.6939 14.2983C83.6939 13.9033 84.0125 13.6449 84.4834 13.6449C85.0156 13.6449 85.3648 13.9944 85.3495 14.511H87.4622C87.401 12.9308 86.201 11.9431 84.5293 11.9431C82.8424 11.9431 81.5819 12.946 81.5819 14.4654C81.5819 15.4835 82.144 16.3192 83.648 16.7142L84.985 17.0637C85.3801 17.17 85.5471 17.3524 85.5471 17.6107C85.5471 17.9906 85.1979 18.2337 84.6052 18.2337C83.9213 18.2337 83.5568 17.9146 83.5568 17.3828H81.4448Z" fill="#3C4E5D"/>
<path d="M91.332 19.9808C92.2593 19.9808 93.1859 19.5554 93.6568 18.9324L93.8092 19.7833H96.0123V12.186H93.6721V16.1366C93.6721 17.2762 93.3375 17.8992 92.2593 17.8992C91.4231 17.8992 90.8763 17.5193 90.8763 16.1062V12.186H88.5361V16.9571C88.5361 18.7653 89.5393 19.9808 91.332 19.9808Z" fill="#3C4E5D"/>
<path d="M99.7232 19.7836V15.6355C99.7232 14.3591 100.407 13.9944 101.076 13.9944C101.82 13.9944 102.306 14.4503 102.306 15.3923V19.7836H104.616V15.6355C104.616 14.3439 105.284 13.9792 105.953 13.9792C106.697 13.9792 107.199 14.435 107.199 15.3923V19.7836H109.478V14.8149C109.478 13.0828 108.566 11.928 106.606 11.928C105.512 11.928 104.616 12.4598 104.221 13.2803C103.765 12.4598 102.975 11.928 101.713 11.928C100.878 11.928 100.103 12.3078 99.6473 12.9156L99.5562 12.1863H97.3677V19.7836H99.7232Z" fill="#3C4E5D"/>
<path fill-rule="evenodd" clip-rule="evenodd" d="M31.5075 3.65308C28.9971 3.65308 26.6163 4.76814 25.0092 6.6967L19.2916 13.5579L22.5932 8.60544L17.1128 10.9542C16.4168 11.2525 16.2422 12.1592 16.7776 12.6947L18.5412 14.4582L17.6408 15.5388L19.6218 17.5197L20.7023 16.6193L22.4659 18.3829C23.0013 18.9183 23.9081 18.7437 24.2063 18.0477L26.5551 12.5674L21.6027 15.869L28.4639 10.1513C30.3924 8.54422 31.5075 6.16349 31.5075 3.65308ZM26.0599 9.10081C26.6069 9.6478 27.4938 9.6478 28.0408 9.10081C28.5878 8.55375 28.5878 7.66686 28.0408 7.11987C27.4938 6.57282 26.6069 6.57282 26.0599 7.11987C25.5128 7.66686 25.5128 8.55375 26.0599 9.10081Z" fill="#05AC66"/>
<path opacity="0.6" d="M2.46826 14.7207C3.77989 19.2145 11.7543 18.9802 17.2255 16.1634C13.5619 17.9941 4.89541 18.3437 2.46826 14.7207Z" fill="#424242"/>
<path opacity="0.6" d="M18.3863 30.0385C14.6918 31.5722 16.2056 23.3493 17.9686 19.4954C16.6835 22.9209 15.5864 30.4723 18.8941 29.6294L18.6986 29.8139C18.5786 29.9048 18.4903 29.9679 18.3863 30.0385Z" fill="#424242"/>
</svg>
